<?xml version="1.0" encoding="UTF-8"?>
<svg id="svg26305" width="31.66" height="29.629" version="1.1" viewBox="0 0 31.66 29.629" xml:space="preserve" xmlns="http://www.w3.org/2000/svg" xmlns:cc="http://creativecommons.org/ns#" xmlns:dc="http://purl.org/dc/elements/1.1/" xmlns:rdf="http://www.w3.org/1999/02/22-rdf-syntax-ns#"><metadata id="metadata26311"><rdf:RDF><cc:Work rdf:about=""><dc:format>image/svg+xml</dc:format><dc:type rdf:resource="http://purl.org/dc/dcmitype/StillImage"/><dc:title/></cc:Work></rdf:RDF></metadata><g id="g26313" transform="matrix(1.25 0 0 -1.25 -9.4262 81.899)"><g id="g27247" transform="translate(-23.401 38.563)"><path id="path26317" d="m35.88 11.375-4-1 5.75-6.25 1.625 3.25" fill="#5aa68c"/><path id="path26319" d="m35.88 11.375-4-1 5.75-6.25 1.625 3.25" fill="none" stroke="#000"/><path id="path26359" d="m45.13 5.4195c5.8578 0 10.607 4.709 10.607 10.518s-4.7488 10.518-10.607 10.518-10.607-4.7094-10.607-10.518 4.7489-10.518 10.607-10.518" fill="#087953"/><path id="path26361" d="m45.13 5.4195c5.8578 0 10.607 4.709 10.607 10.518s-4.7488 10.518-10.607 10.518-10.607-4.7094-10.607-10.518 4.7489-10.518 10.607-10.518z" fill="none" stroke="#000"/><path id="path26363" d="m45.692 16.87c1.6598 0 3.0051 1.3453 3.0051 3.0051s-1.3453 3.0051-3.0051 3.0051-3.0055-1.3453-3.0055-3.0051 1.3457-3.0051 3.0055-3.0051" fill="#fff"/><path id="path26365" d="m45.692 16.87c1.6598 0 3.0051 1.3453 3.0051 3.0051s-1.3453 3.0051-3.0051 3.0051-3.0055-1.3453-3.0055-3.0051 1.3457-3.0051 3.0055-3.0051z" fill="none" stroke="#231f20"/><path id="path26367" d="m46.067 19.625c0.439 0 0.7953 0.3562 0.7953 0.7957 0 0.4391-0.3563 0.7953-0.7953 0.7953-0.4395 0-0.7957-0.3562-0.7957-0.7953 0-0.4395 0.3562-0.7957 0.7957-0.7957" fill="#231f20"/><path id="path26369" d="m50.755 19.995c1.6598 0 3.0051 1.3453 3.0051 3.0051s-1.3453 3.0051-3.0051 3.0051-3.0055-1.3453-3.0055-3.0051 1.3457-3.0051 3.0055-3.0051" fill="#fff"/><path id="path26371" d="m50.755 19.995c1.6598 0 3.0051 1.3453 3.0051 3.0051s-1.3453 3.0051-3.0051 3.0051-3.0055-1.3453-3.0055-3.0051 1.3457-3.0051 3.0055-3.0051z" fill="none" stroke="#231f20"/><path id="path26373" d="m51.13 22.75c0.4391 0 0.7953 0.3562 0.7953 0.7957 0 0.4391-0.3562 0.7953-0.7953 0.7953-0.4395 0-0.7957-0.3562-0.7957-0.7953 0-0.4395 0.3562-0.7957 0.7957-0.7957" fill="#231f20"/><path id="path26375" d="m39.63 16.625s-3.75 0.125-2.625-2 3.125-1.25 3.125-1.25-1.5-2.625 0.375-2.875 2.875 0.875 2.875 0.875 0-5 3.25-0.625" fill="#5aa68c"/><path id="path26377" d="m39.63 16.625s-3.75 0.125-2.625-2 3.125-1.25 3.125-1.25-1.5-2.625 0.375-2.875 2.875 0.875 2.875 0.875 0-5 3.25-0.625" fill="none" stroke="#000"/><path id="path26379" d="m48.755 20.375s6.5 3.875 6.875 0-0.125-4.125-0.125-4.125" fill="#087953"/><path id="path26381" d="m48.755 20.375s6.5 3.875 6.875 0-0.125-4.125-0.125-4.125" fill="none" stroke="#000"/><path id="path26383" d="m55.442 16.812s0.25-0.875-3-1.75-5.125-1-5.125-1l1.75-1.875s6.125-3.875 6.375 4.625"/><path id="path26385" d="m50.755 12.83c0.4391 0 0.7953 0.3558 0.7953 0.7953s-0.3562 0.7957-0.7953 0.7957c-0.4395 0-0.7957-0.3562-0.7957-0.7957s0.3562-0.7953 0.7957-0.7953" fill="#fff"/><path id="path26387" d="m53.772 13.705c0.4394 0 0.7957 0.3558 0.7957 0.7953s-0.3563 0.7957-0.7957 0.7957c-0.4391 0-0.7953-0.3562-0.7953-0.7957s0.3562-0.7953 0.7953-0.7953" fill="#fff"/><path id="path26389" d="m54.005 16.455c0.4391 0 0.7953 0.3558 0.7953 0.7953s-0.3562 0.7957-0.7953 0.7957c-0.4395 0-0.7957-0.3562-0.7957-0.7957s0.3562-0.7953 0.7957-0.7953" fill="#231f20"/><path id="path26391" d="m51.317 15.767c0.439 0 0.7953 0.3558 0.7953 0.7953s-0.3563 0.7957-0.7953 0.7957c-0.4395 0-0.7957-0.3562-0.7957-0.7957s0.3562-0.7953 0.7957-0.7953" fill="#231f20"/><path id="path26393" d="m54.13 20.75-4.5-1.375" fill="none" stroke="#5aa68c"/><path id="path26395" d="m46.13 24.875s-4.5 0.375-6.625-1.625-3.875-4.875-3.875-6.75" fill="none" stroke="#5aa68c"/></g></g></svg>
